{"title":"Glenn.3948.2010.DvDRip.XviD.Ac3.Feel-Free","uid":6362202,"size":878103816,"categoryP":"video","categoryS":"movies","magnet":"?xt=urn:btih:f22b41bcd7defa369edc3c718ed48be60dc9c5cf&amp;dn=Glenn.3948.2010.DvDRip.XviD.Ac3.Feel-Free&amp;tr=udp%3A%2F%2Ftracker.openbittorrent.com%3A80&amp;tr=udp%3A%2F%2Fopen.demonii.com%3A1337&amp;tr=udp%3A%2F%2Ftracker.coppersurfer.tk%3A6969&amp;tr=udp%3A%2F%2Fexodus.desync.com%3A6969","seeders":0,"leechers":1,"uploader":"qwersd","files":-1,"time":1304372008,"description":"Genre:Sci-Fi \nLanguage:English\nIMDb:http://www.imdb.com/title/tt0934446/\nSource:DVD\n\nFormat : AVI\nFormat/Info : Audio Video Interleave\nFile size : 835 MiB\nDuration : 1h 23mn\nOverall bit rate : 1 399 Kbps\n\nVideo\nID : 0\nFormat : MPEG-4 Visual\nFormat profile : Advanced Simple@L5\nFormat settings, BVOP : Yes\nFormat settings, QPel : No\nFormat settings, GMC : No warppoints\nFormat settings, Matrix : Default (H.263)\nMuxing mode : Packed bitstream\nCodec ID : XVID\nCodec ID/Hint : XviD\nDuration : 1h 23mn\nBit rate : 941 Kbps\nWidth : 720 pixels\nHeight : 304 pixels\nDisplay aspect ratio : 2.35:1\nFrame rate : 23.976 fps\nColor space : YUV\nChroma subsampling : 4:2:0\nBit depth : 8 bits\nScan type : Progressive\nBits/(Pixel*Frame) : 0.179\nStream size : 562 MiB (67%)\nWriting library : XviD 1.2.1 (UTC 2008-12-04)\n\nAudio\nID : 1\nFormat : AC-3\nFormat/Info : Audio Coding 3\nMode extension : CM (complete main)\nCodec ID : 2000\nDuration : 1h 23mn\nBit rate mode : Constant\nBit rate : 448 Kbps\nChannel(s) : 6 channels\nChannel positions : Front: L C R, Side: L R, LFE\nSampling rate : 48.0 KHz\nBit depth : 16 bits\nStream size : 268 MiB (32%)\nAlignment : Split accross interleaves\nInterleave, duration : 42 ms (1.00 video frame)\nInterleave, preload duration : 500 ms\n\n\nPlot:\nSynopsis Henry and Jack are two famous and talented pianists: they are rivals and try to outdo each other in the various music events where they regularly compete..\n\nScreens:\n &lt;a href=&quot;\nhttp://www.pix2links.com/images/61336820333371032149.png&quot; rel=&quot;nofollow&quot; target=&quot;_NEW&quot;&gt;\nhttp://www.pix2links.com/images/61336820333371032149.png&lt;/a&gt; &lt;a href=&quot;\nhttp://www.pix2links.com/images/21544422088642999948.png&quot; rel=&quot;nofollow&quot; target=&quot;_NEW&quot;&gt;\nhttp://www.pix2links.com/images/21544422088642999948.png&lt;/a&gt; &lt;a href=&quot;\nhttp://www.pix2links.com/images/60762344699367776291.png&quot; rel=&quot;nofollow&quot; target=&quot;_NEW&quot;&gt;\nhttp://www.pix2links.com/images/60762344699367776291.png&lt;/a&gt; &lt;a href=&quot;\nhttp://www.pix2links.com/images/80521518173414450280.png&quot; rel=&quot;nofollow&quot; target=&quot;_NEW&quot;&gt;\nhttp://www.pix2links.com/images/80521518173414450280.png&lt;/a&gt; &lt;a href=&quot;\nhttp://www.pix2links.com/images/48936391166758182340.png&quot; rel=&quot;nofollow&quot; target=&quot;_NEW&quot;&gt;\nhttp://www.pix2links.com/images/48936391166758182340.png&lt;/a&gt;\n\nGreets:\n\nINK,CRYS,IMAGINE,LKRG,FXG,3Li,FLAWL3SS,TA,iLLUSiON,ViSiON,DTRG SAFCuk009,LU,TheFalcon007,MYSTiC,PrisM,Noir,WBZ,LAP,Rx,Kingdom,SAFCuk009+Fabreezy,HDLiTE,TWiZTED,ExtraTorrentRG.ELEKTRI4KA,MAGNAT,CM8\nAnd to all the other p2p grps past and present.","torrent":{"xt":"urn:btih:f22b41bcd7defa369edc3c718ed48be60dc9c5cf","amp;dn":"Glenn.3948.2010.DvDRip.XviD.Ac3.Feel-Free","amp;tr":["udp%3A%2F%2Ftracker.openbittorrent.com%3A80","udp%3A%2F%2Fopen.demonii.com%3A1337","udp%3A%2F%2Ftracker.coppersurfer.tk%3A6969","udp%3A%2F%2Fexodus.desync.com%3A6969"],"infoHash":"f22b41bcd7defa369edc3c718ed48be60dc9c5cf","infoHashBuffer":{"type":"Buffer","data":[242,43,65,188,215,222,250,54,158,220,60,113,142,212,139,230,13,201,197,207]},"announce":[],"urlList":[]}}